<?xml version="1.0" encoding="utf-8"?>
<!-- Generator: Adobe Illustrator 24.1.2, SVG Export Plug-In . SVG Version: 6.00 Build 0)  -->
<svg version="1.1" id="Layer_1" xmlns="http://www.w3.org/2000/svg" xmlns:xlink="http://www.w3.org/1999/xlink" width="1920" height="1080" x="0px" y="0px"
	 viewBox="0 0 5333.3 3000" style="enable-background:new 0 0 5333.3 3000;" xml:space="preserve">
<style type="text/css">
	.st0{fill-rule:evenodd;clip-rule:evenodd;fill:#FFEADB;}
	.st1{fill-rule:evenodd;clip-rule:evenodd;fill:#637373;}
	.st2{fill-rule:evenodd;clip-rule:evenodd;fill:#679B9B;}
	.st3{fill-rule:evenodd;clip-rule:evenodd;fill:#FF9A76;}
</style>
<g>
	<rect class="st0" width="5333.3" height="3000"/>
	<path class="st1" d="M5333.3,0v323.2c-197.9,50-420.7,87.9-670.3,106C3243.2,532,2666.7,1500,2317.3,2445.6
		c-84.7,229.4-163.5,405.5-246.5,554.4H0V1268C218.7,951.1,446.4,560.4,671.2,79.4c12.6-26.9,25-53.1,37.5-79.4H5333.3z"/>
	<path class="st2" d="M5333.3,0v323.2c-197.9,50-420.7,87.9-670.3,106C3243.2,532,2666.7,1500,2317.3,2445.6
		c-84.7,229.4-163.5,405.5-246.5,554.4H0v-163.2c330.7-152.4,639.5-380.4,856.4-720.4C1241.8,1512.2,1463.8,686.7,1845.3,0H5333.3z"
		/>
	<path class="st3" d="M5333.3,0v323.2c-197.9,50-420.7,87.9-670.3,106C3243.2,532,2666.7,1500,2317.3,2445.6
		c-84.7,229.4-163.5,405.5-246.5,554.4h-968.9c220.9-272.9,435.7-607.3,628.9-1017.4C2277.7,821.7,2618.9,284.7,3056.3,0H5333.3z"/>
</g>
</svg>
